<svg width="57" height="51" viewBox="0 0 57 51" fill="none" xmlns="http://www.w3.org/2000/svg">
<path d="M56.9959 50.8088C49.9416 50.2167 43.6943 46.7037 39.4961 41.466C37.6301 39.7704 31.0397 34.1206 23.3433 31.5388C17.0914 29.4411 1.77569 26.8827 0.00557525 26.7038C0.00557525 26.7038 0.00557817 26.7038 0.00224021 26.7035C0.00224021 26.7035 0.00224021 26.7035 0.000718068 26.7017L0.00587184 26.7005C1.76228 26.4626 16.9872 23.3752 23.1664 21.0627C32.1703 17.6914 39.4746 10.0734 39.4746 10.0734L39.4727 10.075C43.448 5.10081 49.2792 1.66073 55.9379 0.81561C54.7948 1.52906 53.6851 2.32283 52.6232 3.21252C40.3186 13.522 38.7002 31.8565 49.0104 44.162C51.3218 46.9207 54.0385 49.1372 56.9978 50.8073L56.9959 50.8088Z" fill="white"/>
</svg>
