<?xml version="1.0" encoding="utf-8"?>
<!-- Generator: Adobe Illustrator 27.5.0, SVG Export Plug-In . SVG Version: 6.00 Build 0)  -->
<svg version="1.1" id="Layer_1" xmlns="http://www.w3.org/2000/svg" xmlns:xlink="http://www.w3.org/1999/xlink" x="0px" y="0px"
	 viewBox="0 0 57 51" style="enable-background:new 0 0 57 51;" xml:space="preserve">
<style type="text/css">
	.st0{fill:#FFFFFF;}
</style>
<path class="st0" d="M0,0.8c7.1,0.6,13.3,4.1,17.5,9.3c1.9,1.7,8.5,7.3,16.2,9.9c6.3,2.1,21.6,4.7,23.3,4.8c0,0,0,0,0,0c0,0,0,0,0,0
	l0,0c-1.8,0.2-17,3.3-23.2,5.6c-9,3.4-16.3,11-16.3,11l0,0c-4,5-9.8,8.4-16.5,9.3c1.1-0.7,2.3-1.5,3.3-2.4
	C16.7,38.1,18.3,19.8,8,7.5C5.7,4.7,3,2.5,0,0.8L0,0.8z"/>
</svg>
