<svg width="1440" height="377" viewBox="0 0 1440 377" fill="none" xmlns="http://www.w3.org/2000/svg">
<g opacity="0.1">
<mask id="mask0_48_2840" style="mask-type:luminance" maskUnits="userSpaceOnUse" x="0" y="0" width="1440" height="377">
<path d="M0 376.411L1440 376.411L1440 0.128967L3.00734e-05 0.12883L0 376.411Z" fill="white"/>
</mask>
<g mask="url(#mask0_48_2840)">
<path d="M948.363 378.364L1150.8 249.02L745.93 249.02L948.363 378.364Z" fill="white"/>
<path d="M1340.76 378.364L1543.19 249.02L1138.32 249.02L1340.76 378.364Z" fill="white"/>
<path d="M555.97 378.364L758.4 249.02L353.537 249.02L555.97 378.364Z" fill="white"/>
<path d="M163.572 378.364L366.006 249.02L-38.8581 249.02L163.572 378.364Z" fill="white"/>
<path d="M948.742 127.524L1151.18 -1.82384L746.309 -1.82389L948.742 127.524Z" fill="white"/>
<path d="M1341.14 127.524L1543.57 -1.82378L1138.7 -1.82383L1341.14 127.524Z" fill="white"/>
<path d="M556.348 127.524L758.781 -1.8239L353.914 -1.82396L556.348 127.524Z" fill="white"/>
<path d="M164.367 127.979L366.801 -1.36478L-38.0662 -1.36483L164.367 127.979Z" fill="white"/>
<path d="M752.543 252.917L954.977 123.573L550.113 123.573L752.543 252.917Z" fill="white"/>
<path d="M1144.94 252.917L1347.37 123.573L942.507 123.573L1144.94 252.917Z" fill="white"/>
<path d="M1542.94 254.011L1745.37 124.667L1340.51 124.667L1542.94 254.011Z" fill="white"/>
<path d="M360.149 252.917L562.582 123.573L157.715 123.573L360.149 252.917Z" fill="white"/>
<path d="M-0.433487 252.917L202 123.573L-202.867 123.573L-0.433487 252.917Z" fill="white"/>
</g>
</g>
</svg>
